<svg xmlns="http://www.w3.org/2000/svg" width="68" height="68" fill="none" viewBox="0 0 68 68"><g clip-path="url(#clip0_253_30950)"><path fill="#473BCB" d="M28 68C43.464 68 56 55.464 56 40C56 24.536 43.464 12 28 12C12.536 12 0 24.536 0 40C0 55.464 12.536 68 28 68Z"/><path fill="#fff" d="M38.9347 40.3245L27.9993 22.5L17.0625 40.3245L27.9993 46.674L38.9347 40.3245Z"/><path fill="#fff" d="M27.9993 57.5L38.942 42.3608L27.9993 48.7088L17.0625 42.3608L27.9993 57.5Z"/></g><g clip-path="url(#clip1_253_30950)"><circle cx="52.111" cy="15.889" r="15.556" fill="#0C6CF2"/><path fill="#fff" fill-rule="evenodd" d="M57.25 15.2499C57.25 14.4215 56.5784 13.7499 55.75 13.7499V12.2499C55.75 10.1789 54.0711 8.49994 52 8.49994C49.9289 8.49994 48.25 10.1789 48.25 12.2499V13.7499C47.4216 13.7499 46.75 14.4215 46.75 15.2499V21.9999C46.75 22.8284 47.4216 23.4999 48.25 23.4999H55.75C56.5784 23.4999 57.25 22.8284 57.25 21.9999V15.2499ZM49.75 12.2499V13.7499H54.25V12.2499C54.25 11.0073 53.2426 9.99994 52 9.99994C50.7574 9.99994 49.75 11.0073 49.75 12.2499ZM52 20.1249C52.8284 20.1249 53.5 19.4534 53.5 18.6249C53.5 17.7965 52.8284 17.1249 52 17.1249C51.1716 17.1249 50.5 17.7965 50.5 18.6249C50.5 19.4534 51.1716 20.1249 52 20.1249Z" clip-rule="evenodd"/></g><rect width="29.111" height="29.111" x="37.556" y="1.333" stroke="#fff" stroke-width="2" rx="14.556"/><defs><clipPath id="clip0_253_30950"><rect width="56" height="56" fill="#fff" transform="translate(0 12)"/></clipPath><clipPath id="clip1_253_30950"><rect width="31.111" height="31.111" x="36.556" y=".333" fill="#fff" rx="15.556"/></clipPath></defs></svg>